name D:\PhD\Datasets\SharingData_IBEC_VALDUCE\HM_Healthy_0001.mot
datacolumns 46
datarows 8
range 0.01000000 0.08000000
endheader
                time	         pelvis_tilt	     pelvis_rotation	           pelvis_tx	           pelvis_ty	           pelvis_tz	       hip_flexion_r	     hip_adduction_r	      hip_rotation_r	        knee_angle_r	       ankle_angle_r	    subtalar_angle_r	         mtp_angle_r	       hip_flexion_l	     hip_adduction_l	      hip_rotation_l	        knee_angle_l	       ankle_angle_l	    subtalar_angle_l	         mtp_angle_l	    lumbar_extension	      lumbar_bending	     lumbar_rotation	          arm_flex_r	           arm_add_r	           arm_rot_r	        elbow_flex_r	           pro_sup_r	        wrist_flex_r	         wrist_dev_r	          arm_flex_l	           arm_add_l	           arm_rot_l	        elbow_flex_l	           pro_sup_l	        wrist_flex_l	         wrist_dev_l	          end_eff_tx	          end_eff_ty	          end_eff_tz	             goal_tx	             goal_ty	             goal_tz	            elbow_tx	            elbow_ty	            elbow_tz	
          0.01000000	          0.00000000	          0.00000000	        332.59364516	        493.68690851	        381.77955514	          0.00000000	          0.00000000	          0.00000000	          0.00000000	          0.00000000	          0.00000000	          0.00000000	          0.00000000	          0.00000000	          0.00000000	          0.00000000	          0.00000000	          0.00000000	          0.00000000	         -5.08722067	          6.34596920	         -4.64094448	         10.45612049	        -30.08563423	          9.87173271	         63.15081024	         91.35597229	          0.00000000	          0.00000000	          0.00000000	          0.00000000	          0.00000000	          0.00000000	          0.00000000	          0.00000000	          0.00000000	        600.74052605	        222.85020682	        597.26269148	        624.90209339	        237.85522164	        570.26748541	        200.92693210	        296.79842480	        671.77185689	
          0.02000000	          0.00000000	          0.00000000	        332.65992742	        493.71348962	        381.78816707	          0.00000000	          0.00000000	          0.00000000	          0.00000000	          0.00000000	          0.00000000	          0.00000000	          0.00000000	          0.00000000	          0.00000000	          0.00000000	          0.00000000	          0.00000000	          0.00000000	         -5.14652538	          6.34975481	         -4.61686277	         10.49597073	        -30.06465530	          9.89008999	         63.14478683	         91.90527344	          0.00000000	          0.00000000	          0.00000000	          0.00000000	          0.00000000	          0.00000000	          0.00000000	          0.00000000	          0.00000000	        600.82695807	        222.82033035	        597.11153570	        625.00805736	        237.77617297	        570.18006924	        201.03079400	        296.74206128	        671.70739302	
          0.03000000	          0.00000000	          0.00000000	        332.71244696	        493.74463390	        381.77386413	          0.00000000	          0.00000000	          0.00000000	          0.00000000	          0.00000000	          0.00000000	          0.00000000	          0.00000000	          0.00000000	          0.00000000	          0.00000000	          0.00000000	          0.00000000	          0.00000000	         -5.14590025	          6.36641359	         -4.63200426	         10.52028847	        -30.06328201	          9.93760395	         63.14518738	         89.45850372	          0.00000000	          0.00000000	          0.00000000	          0.00000000	          0.00000000	          0.00000000	          0.00000000	          0.00000000	          0.00000000	        602.40404031	        224.32921097	        599.93939872	        625.10228381	        237.72835581	        570.03312292	        201.08386072	        296.76247578	        671.69859685	
          0.04000000	          0.00000000	          0.00000000	        332.76454958	        493.75965501	        381.78067652	          0.00000000	          0.00000000	          0.00000000	          0.00000000	          0.00000000	          0.00000000	          0.00000000	          0.00000000	          0.00000000	          0.00000000	          0.00000000	          0.00000000	          0.00000000	          0.00000000	         -5.11524296	          6.37082195	         -4.63027811	         10.47597504	        -30.08023262	          9.95402050	         63.09741211	         90.59704590	          0.00000000	          0.00000000	          0.00000000	          0.00000000	          0.00000000	          0.00000000	          0.00000000	          0.00000000	          0.00000000	        601.42687690	        223.04597343	        596.56683570	        625.19698595	        237.65195971	        569.82472126	        201.16933371	        296.74711123	        671.66961388	
          0.05000000	          0.00000000	          0.00000000	        332.81317261	        493.79613337	        381.78255477	          0.00000000	          0.00000000	          0.00000000	          0.00000000	          0.00000000	          0.00000000	          0.00000000	          0.00000000	          0.00000000	          0.00000000	          0.00000000	          0.00000000	          0.00000000	          0.00000000	         -5.19284582	          6.38579941	         -4.63584709	         10.57151985	        -30.07702255	         10.01500797	         63.09343719	         90.58525848	          0.00000000	          0.00000000	          0.00000000	          0.00000000	          0.00000000	          0.00000000	          0.00000000	          0.00000000	          0.00000000	        601.49461597	        222.95635504	        596.37704341	        625.28857044	        237.57099710	        569.51280946	        201.28737065	        296.72563521	        671.63986485	
          0.06000000	          0.00000000	          0.00000000	        332.58589049	        493.60728156	        381.72645246	          0.00000000	          0.00000000	          0.00000000	          0.00000000	          0.00000000	          0.00000000	          0.00000000	          0.00000000	          0.00000000	          0.00000000	          0.00000000	          0.00000000	          0.00000000	          0.00000000	         -5.60434914	          6.74206781	         -5.03981590	         11.31701279	        -30.30185127	         10.56845951	         63.05667496	         90.63355255	          0.00000000	          0.00000000	          0.00000000	          0.00000000	          0.00000000	          0.00000000	          0.00000000	          0.00000000	          0.00000000	        601.50579721	        222.62253183	        596.20606536	        625.47555068	        237.48221953	        569.21692673	        201.91812639	        296.36553344	        671.32377045	
          0.07000000	          0.00000000	          0.00000000	        332.59193423	        493.62277111	        381.72460144	          0.00000000	          0.00000000	          0.00000000	          0.00000000	          0.00000000	          0.00000000	          0.00000000	          0.00000000	          0.00000000	          0.00000000	          0.00000000	          0.00000000	          0.00000000	          0.00000000	         -5.65926409	          6.77257347	         -5.09451628	         11.43515778	        -30.30687141	         10.69454002	         63.01630783	         90.54521942	          0.00000000	          0.00000000	          0.00000000	          0.00000000	          0.00000000	          0.00000000	          0.00000000	          0.00000000	          0.00000000	        601.58909746	        222.56582590	        596.05555040	        625.62015373	        237.35173154	        568.89278088	        202.08117868	        296.31593112	        671.26249251	
          0.08000000	          0.00000000	          0.00000000	        332.59740511	        493.63208777	        381.70452829	          0.00000000	          0.00000000	          0.00000000	          0.00000000	          0.00000000	          0.00000000	          0.00000000	          0.00000000	          0.00000000	          0.00000000	          0.00000000	          0.00000000	          0.00000000	          0.00000000	         -5.66863823	          6.81367874	         -5.11874723	         11.47710133	        -30.33218384	         10.77074909	         63.02916336	         90.47742462	          0.00000000	          0.00000000	          0.00000000	          0.00000000	          0.00000000	          0.00000000	          0.00000000	          0.00000000	          0.00000000	        601.66414526	        222.58916663	        595.72844854	        625.76420121	        237.21361174	        568.60276117	        202.20591654	        296.34271272	        671.23664269	
